<?xml version="1.0" encoding="UTF-8"?>
<!DOCTYPE svg PUBLIC "-//W3C//DTD SVG 1.1//EN" "http://www.w3.org/Graphics/SVG/1.1/DTD/svg11.dtd">
<!-- Creator: CorelDRAW X6 -->
<svg xmlns="http://www.w3.org/2000/svg" xml:space="preserve" width="512.39mm" height="113.417mm" version="1.1" style="shape-rendering:geometricPrecision; text-rendering:geometricPrecision; image-rendering:optimizeQuality; fill-rule:evenodd; clip-rule:evenodd"
viewBox="0 0 20542 4547"
 xmlns:xlink="http://www.w3.org/1999/xlink">
 <defs>
  <style type="text/css">
   <![CDATA[
    .fil0 {fill:#231551}
    .fil1 {fill:#E0034C}
    .fil2 {fill:white}
   ]]>
  </style>
 </defs>
 <g id="Layer_x0020_1">
  <metadata id="CorelCorpID_0Corel-Layer"/>
  <g id="_589172456">
   <ellipse class="fil0" transform="matrix(3.13997 -0.0383639 0.0383639 3.13997 7905.12 447.234)" rx="147" ry="142"/>
   <path class="fil0" d="M874 1788c-24,10 -36,28 -36,54l4 1622c0,0 0,1 0,1 0,12 -8,22 -20,25 -290,63 -824,125 -822,-328 2,-469 4,-940 6,-1410 1,-247 106,-422 317,-526 318,-156 656,-214 1013,-175 356,39 448,364 282,645 -6,11 -18,16 -30,15 -246,-44 -484,-18 -714,77z"/>
   <path class="fil0" d="M3293 1919c14,-261 -421,-283 -609,-263 -186,19 -365,64 -539,135 -13,5 -26,3 -36,-8 -190,-198 -197,-504 74,-624 406,-179 1013,-160 1388,-24 343,124 515,381 517,772 3,375 7,749 12,1124 4,243 -286,397 -487,450 -548,147 -1747,195 -1776,-672 -15,-421 184,-669 594,-743 274,-49 548,-85 822,-106 22,-1 39,-19 40,-41l0 0z"/>
   <path class="fil0" d="M5440 3534l4 804c1,13 -6,21 -18,24 -291,62 -827,123 -824,-318 7,-812 9,-1623 6,-2435 -2,-552 1039,-610 1398,-567 866,103 1145,769 1030,1565 -110,761 -881,1079 -1566,904 -20,-5 -30,2 -30,23z"/>
   <path class="fil0" d="M9679 3534l5 796c0,20 -14,38 -34,41 -269,46 -792,121 -794,-305 -6,-819 -7,-1637 -4,-2456 0,-275 251,-415 480,-484 584,-174 1432,-151 1789,423 226,362 237,902 84,1305 -228,604 -910,803 -1495,656 -21,-5 -31,3 -31,24z"/>
   <path class="fil0" d="M12840 1685c-320,-58 -615,-26 -883,97 -13,6 -26,9 -40,9 -35,0 -67,-19 -84,-51 -423,-795 863,-729 1247,-672 545,81 797,412 793,935 -3,355 -3,708 -1,1060 2,278 -458,421 -685,462 -580,106 -1526,69 -1582,-725 -56,-793 793,-783 1424,-839 15,-2 25,-10 30,-24 46,-130 -111,-232 -219,-252z"/>
   <path class="fil0" d="M15819 3318c-597,184 -1312,27 -1492,-653 -68,-253 -77,-564 -7,-817 243,-891 1277,-966 2003,-642 280,125 314,295 313,601 -2,533 -4,1066 -4,1598 0,389 -138,672 -413,847 -374,238 -982,247 -1423,132 -360,-95 -490,-466 -238,-751 6,-7 15,-11 25,-11 4,0 8,1 12,2 57,22 112,45 163,68 313,139 1195,237 1088,-358 -3,-16 -12,-21 -27,-16z"/>
   <path class="fil0" d="M19596 2411c0,631 -512,1143 -1143,1143l-260 0c-632,0 -1144,-512 -1144,-1143l0 -223c0,-631 512,-1143 1144,-1143l260 0c631,0 1143,512 1143,1143l0 223z"/>
   <path class="fil0" d="M8274 3499c-317,35 -787,123 -787,-358 0,-659 0,-1319 0,-1978 0,-15 11,-28 25,-31 141,-31 304,-40 487,-26 285,23 321,178 320,440 -1,641 1,1273 5,1897 0,33 -17,52 -50,56z"/>
  </g>
  <path class="fil1" d="M20540 3015c-243,1018 -1115,1541 -2104,1532 -29,-1 -44,-16 -44,-45l-2 -615c0,0 0,0 0,0 0,-27 21,-49 48,-49 695,-16 1225,-294 1412,-991 5,-21 24,-36 46,-36 4,0 8,1 12,1l593 141c24,5 41,26 41,50 0,4 -1,8 -2,12l0 0z"/>
  <g id="_589194512">
   <path class="fil2" d="M5431 1846c0,0 0,-1 0,-1 0,-87 71,-158 158,-158 0,0 0,0 0,0l161 -1c-8,0 -8,0 -8,0 254,-4 463,211 468,480l0 240c0,-7 0,-7 0,-7 4,270 -197,492 -450,496l-169 1c0,0 0,0 0,0 -87,0 -158,-71 -159,-158l-1 -892z"/>
   <path class="fil2" d="M9672 1846c0,0 0,-1 0,-1 0,-87 71,-158 158,-158 0,0 0,0 0,0l163 -1c-7,0 -7,0 -7,0 252,-4 460,209 464,477l1 246c-1,-7 -1,-7 -1,-7 5,268 -195,489 -447,493l-171 1c0,0 0,0 0,0 -87,0 -158,-71 -159,-158l-1 -892z"/>
   <path class="fil2" d="M15453 2760c-352,-64 -380,-376 -342,-667 38,-289 225,-424 562,-404 37,2 84,18 141,48 13,7 20,19 20,34l1 887c0,1 0,1 0,1 0,12 -6,23 -16,28 -121,71 -243,95 -366,73z"/>
   <path class="fil2" d="M18074 1770c163,-124 401,-109 532,33 278,303 199,1278 -418,1090 -380,-116 -377,-922 -114,-1123z"/>
   <path class="fil2" d="M2635 2778c-75,-267 470,-271 639,-268 15,0 23,8 23,24l0 342c0,15 -10,28 -24,32 -174,54 -568,117 -638,-130z"/>
   <path class="fil2" d="M13071 2526l0 342c0,18 -8,30 -25,36 -152,55 -465,97 -590,-32 -170,-177 58,-324 214,-338 125,-10 250,-21 375,-32 18,-1 26,7 26,24z"/>
  </g>
 </g>
</svg>
